<svg width="143" height="29" viewBox="0 0 143 29" fill="none" xmlns="http://www.w3.org/2000/svg">
<path d="M5.93712 28.3258H0L9.04643 2.12061H16.1863L25.22 28.3258H19.2828L12.7187 8.10891H12.514L5.93712 28.3258Z" fill="white"/>
<path d="M28.2717 28.3258V8.67191H33.5562V12.1011H33.761C34.1192 10.8813 34.7206 9.95999 35.5651 9.33728C36.4096 8.70603 37.3821 8.39041 38.4825 8.39041C38.7555 8.39041 39.0498 8.40747 39.3654 8.44159C39.681 8.47572 39.9583 8.52263 40.1971 8.58234V13.419C39.9412 13.3423 39.5872 13.274 39.1351 13.2143C38.683 13.1546 38.2692 13.1248 37.8939 13.1248C37.0921 13.1248 36.3755 13.2996 35.7443 13.6494C35.1215 13.9906 34.6268 14.4683 34.26 15.0825C33.9017 15.6967 33.7226 16.4047 33.7226 17.2065V28.3258H28.2717Z" fill="white"/>
<path d="M54.4545 8.67191V12.7665H42.6187V8.67191H54.4545ZM45.3057 3.96316H50.7566V22.2863C50.7566 22.7896 50.8334 23.182 50.9869 23.4635C51.1405 23.7365 51.3537 23.9284 51.6267 24.0393C51.9082 24.1502 52.2323 24.2057 52.5992 24.2057C52.8551 24.2057 53.111 24.1843 53.3669 24.1417C53.6228 24.0905 53.819 24.0521 53.9555 24.0265L54.8128 28.0827C54.5398 28.168 54.1559 28.2661 53.6612 28.377C53.1664 28.4964 52.565 28.5689 51.857 28.5945C50.5433 28.6457 49.3917 28.4708 48.4022 28.0699C47.4212 27.669 46.6578 27.0463 46.1118 26.2018C45.5659 25.3573 45.2972 24.291 45.3057 23.0029V3.96316Z" fill="white"/>
<path d="M58.0053 28.3258V8.67191H63.4562V28.3258H58.0053ZM60.7435 6.1384C59.9331 6.1384 59.2379 5.8697 58.6578 5.33228C58.0863 4.78634 57.8005 4.13377 57.8005 3.37457C57.8005 2.6239 58.0863 1.97986 58.6578 1.44245C59.2379 0.896506 59.9331 0.623535 60.7435 0.623535C61.5539 0.623535 62.2448 0.896506 62.8164 1.44245C63.3964 1.97986 63.6865 2.6239 63.6865 3.37457C63.6865 4.13377 63.3964 4.78634 62.8164 5.33228C62.2448 5.8697 61.5539 6.1384 60.7435 6.1384Z" fill="white"/>
<path d="M84.1753 14.2763L79.185 14.5834C79.0997 14.1569 78.9163 13.7731 78.6348 13.4318C78.3533 13.0821 77.9823 12.8049 77.5216 12.6001C77.0695 12.3869 76.5278 12.2802 75.8966 12.2802C75.0521 12.2802 74.3398 12.4594 73.7597 12.8177C73.1797 13.1674 72.8896 13.6366 72.8896 14.2252C72.8896 14.6943 73.0773 15.091 73.4526 15.4151C73.828 15.7393 74.472 15.9995 75.3848 16.1957L78.9419 16.9122C80.8527 17.3046 82.2773 17.9359 83.2156 18.806C84.154 19.6761 84.6231 20.8191 84.6231 22.2352C84.6231 23.5232 84.2435 24.6535 83.4843 25.626C82.7337 26.5984 81.7015 27.3576 80.3878 27.9036C79.0827 28.441 77.5771 28.7097 75.871 28.7097C73.2692 28.7097 71.1964 28.168 69.6524 27.0847C68.1169 25.9928 67.217 24.5085 66.9525 22.6318L72.3138 22.3503C72.4759 23.1436 72.8683 23.7493 73.491 24.1673C74.1137 24.5767 74.9113 24.7815 75.8838 24.7815C76.8392 24.7815 77.6069 24.5981 78.187 24.2313C78.7756 23.8559 79.0741 23.374 79.0827 22.7854C79.0741 22.2906 78.8651 21.8854 78.4557 21.5698C78.0462 21.2456 77.415 20.9983 76.5619 20.8277L73.1583 20.1495C71.239 19.7656 69.8102 19.1003 68.8718 18.1534C67.942 17.2065 67.4771 15.9995 67.4771 14.5323C67.4771 13.2698 67.8184 12.1821 68.5008 11.2694C69.1917 10.3567 70.1599 9.6529 71.4054 9.15814C72.6593 8.66338 74.1265 8.416 75.807 8.416C78.2893 8.416 80.2428 8.94062 81.6674 9.98985C83.1004 11.0391 83.9364 12.4679 84.1753 14.2763Z" fill="white"/>
<path d="M93.66 28.6969C92.406 28.6969 91.2885 28.4794 90.3075 28.0443C89.3265 27.6007 88.5503 26.9482 87.9787 26.0866C87.4157 25.2165 87.1343 24.1332 87.1343 22.8365C87.1343 21.7447 87.3347 20.8277 87.7356 20.0855C88.1366 19.3434 88.6825 18.7462 89.3735 18.2941C90.0644 17.842 90.8492 17.5008 91.7278 17.2705C92.615 17.0402 93.5448 16.8781 94.5173 16.7843C95.6603 16.6648 96.5816 16.5539 97.2811 16.4516C97.9806 16.3407 98.4881 16.1786 98.8038 15.9654C99.1194 15.7521 99.2772 15.4365 99.2772 15.0185V14.9417C99.2772 14.1313 99.0213 13.5044 98.5095 13.0608C98.0062 12.6172 97.2896 12.3954 96.3598 12.3954C95.3788 12.3954 94.5983 12.6129 94.0182 13.048C93.4382 13.4745 93.0543 14.0119 92.8666 14.6602L87.8252 14.2508C88.0811 13.0565 88.5844 12.0243 89.3351 11.1542C90.0857 10.2756 91.0539 9.60172 92.2396 9.13255C93.4339 8.65485 94.8158 8.416 96.3854 8.416C97.4773 8.416 98.5223 8.54396 99.5203 8.79987C100.527 9.05578 101.418 9.45244 102.195 9.98985C102.979 10.5273 103.598 11.2182 104.05 12.0627C104.502 12.8987 104.728 13.901 104.728 15.0697V28.3258H99.5587V25.6004H99.4051C99.0895 26.2146 98.6673 26.7562 98.1384 27.2254C97.6095 27.686 96.974 28.0486 96.2318 28.313C95.4897 28.5689 94.6324 28.6969 93.66 28.6969ZM95.221 24.935C96.0229 24.935 96.7309 24.7772 97.3451 24.4616C97.9593 24.1374 98.4412 23.7024 98.791 23.1564C99.1407 22.6105 99.3156 21.992 99.3156 21.3011V19.2154C99.145 19.3263 98.9104 19.4287 98.6118 19.5225C98.3218 19.6078 97.9934 19.6888 97.6266 19.7656C97.2598 19.8339 96.8929 19.8978 96.5261 19.9576C96.1593 20.0087 95.8267 20.0557 95.5281 20.0983C94.8883 20.1921 94.3296 20.3414 93.8519 20.5462C93.3742 20.7509 93.0031 21.0281 92.7387 21.3779C92.4742 21.7191 92.342 22.1456 92.342 22.6574C92.342 23.3995 92.6107 23.9668 93.1481 24.3592C93.6941 24.7431 94.385 24.935 95.221 24.935Z" fill="white"/>
<path d="M114.408 16.9634V28.3258H108.957V8.67191H114.152V12.1395H114.382C114.817 10.9964 115.547 10.0922 116.57 9.42685C117.594 8.75295 118.835 8.416 120.294 8.416C121.659 8.416 122.849 8.71457 123.864 9.31169C124.879 9.90881 125.668 10.7618 126.231 11.8708C126.794 12.9712 127.075 14.2849 127.075 15.8118V28.3258H121.625V16.7843C121.633 15.5815 121.326 14.6432 120.703 13.9693C120.081 13.2868 119.223 12.9456 118.131 12.9456C117.398 12.9456 116.749 13.1034 116.186 13.419C115.632 13.7347 115.197 14.1953 114.881 14.801C114.574 15.3981 114.416 16.1189 114.408 16.9634Z" fill="white"/>
<path d="M141.825 8.67191V12.7665H129.99V8.67191H141.825ZM132.677 3.96316H138.128V22.2863C138.128 22.7896 138.204 23.182 138.358 23.4635C138.511 23.7365 138.725 23.9284 138.998 24.0393C139.279 24.1502 139.603 24.2057 139.97 24.2057C140.226 24.2057 140.482 24.1843 140.738 24.1417C140.994 24.0905 141.19 24.0521 141.326 24.0265L142.184 28.0827C141.911 28.168 141.527 28.2661 141.032 28.377C140.537 28.4964 139.936 28.5689 139.228 28.5945C137.914 28.6457 136.763 28.4708 135.773 28.0699C134.792 27.669 134.029 27.0463 133.483 26.2018C132.937 25.3573 132.668 24.291 132.677 23.0029V3.96316Z" fill="white"/>
</svg>
