<svg width="116" height="23" viewBox="0 0 116 23" fill="none" xmlns="http://www.w3.org/2000/svg">
<path d="M4.83778 22.5728H0L7.37136 1.21987H13.1892L20.5501 22.5728H15.7124L10.3637 6.09936H10.1969L4.83778 22.5728Z" fill="#0C0C0C"/>
<path d="M23.0368 22.5728V6.55811H27.3428V9.35235H27.5097C27.8016 8.35838 28.2916 7.60769 28.9798 7.10028C29.6679 6.58592 30.4603 6.32873 31.3569 6.32873C31.5794 6.32873 31.8192 6.34264 32.0764 6.37044C32.3335 6.39824 32.5594 6.43647 32.7541 6.48513V10.4263C32.5455 10.3637 32.2571 10.3081 31.8887 10.2594C31.5203 10.2108 31.1832 10.1864 30.8773 10.1864C30.224 10.1864 29.6401 10.3289 29.1257 10.6139C28.6183 10.892 28.2152 11.2812 27.9163 11.7817C27.6244 12.2821 27.4784 12.859 27.4784 13.5124V22.5728H23.0368Z" fill="#0C0C0C"/>
<path d="M44.3715 6.55811V9.89451H34.7272V6.55811H44.3715ZM36.9167 2.72125H41.3583V17.6516C41.3583 18.0617 41.4209 18.3815 41.546 18.6109C41.6711 18.8333 41.8449 18.9897 42.0673 19.08C42.2967 19.1704 42.5608 19.2156 42.8597 19.2156C43.0682 19.2156 43.2768 19.1982 43.4853 19.1634C43.6938 19.1217 43.8537 19.0905 43.9649 19.0696L44.6635 22.3747C44.441 22.4442 44.1282 22.5242 43.7251 22.6145C43.3219 22.7118 42.8319 22.7709 42.255 22.7918C41.1846 22.8335 40.2462 22.691 39.4399 22.3643C38.6406 22.0376 38.0185 21.5302 37.5736 20.8421C37.1287 20.1539 36.9098 19.2851 36.9167 18.2355V2.72125Z" fill="#0C0C0C"/>
<path d="M47.2648 22.5728V6.55811H51.7064V22.5728H47.2648ZM49.496 4.49371C48.8357 4.49371 48.2692 4.27476 47.7965 3.83686C47.3308 3.39201 47.098 2.86027 47.098 2.24164C47.098 1.62997 47.3308 1.10518 47.7965 0.667281C48.2692 0.222427 48.8357 0 49.496 0C50.1563 0 50.7194 0.222427 51.1851 0.667281C51.6577 1.10518 51.8941 1.62997 51.8941 2.24164C51.8941 2.86027 51.6577 3.39201 51.1851 3.83686C50.7194 4.27476 50.1563 4.49371 49.496 4.49371Z" fill="#0C0C0C"/>
<path d="M68.5891 11.1248L64.5229 11.375C64.4533 11.0275 64.3039 10.7147 64.0745 10.4367C63.8451 10.1517 63.5428 9.92579 63.1674 9.75897C62.799 9.5852 62.3577 9.49832 61.8433 9.49832C61.1552 9.49832 60.5748 9.64428 60.1021 9.93622C59.6295 10.2212 59.3931 10.6035 59.3931 11.0831C59.3931 11.4654 59.5461 11.7886 59.8519 12.0527C60.1577 12.3169 60.6825 12.5289 61.4263 12.6887L64.3248 13.2726C65.8817 13.5924 67.0425 14.1067 67.8071 14.8157C68.5717 15.5247 68.954 16.4561 68.954 17.6099C68.954 18.6595 68.6447 19.5805 68.0261 20.3729C67.4144 21.1653 66.5733 21.7839 65.5029 22.2288C64.4394 22.6667 63.2126 22.8856 61.8225 22.8856C59.7025 22.8856 58.0134 22.4442 56.7553 21.5615C55.5041 20.6718 54.7708 19.4623 54.5554 17.9332L58.924 17.7038C59.056 18.3502 59.3758 18.8437 59.8832 19.1843C60.3906 19.5179 61.0405 19.6848 61.8329 19.6848C62.6114 19.6848 63.2369 19.5353 63.7096 19.2364C64.1892 18.9306 64.4325 18.5379 64.4394 18.0583C64.4325 17.6551 64.2622 17.325 63.9286 17.0678C63.5949 16.8036 63.0806 16.6021 62.3855 16.4631L59.6121 15.9105C58.0482 15.5977 56.8839 15.0555 56.1193 14.284C55.3617 13.5124 54.9828 12.5289 54.9828 11.3333C54.9828 10.3046 55.2609 9.41838 55.8169 8.67464C56.38 7.9309 57.1689 7.35746 58.1837 6.95431C59.2055 6.55116 60.401 6.34959 61.7703 6.34959C63.793 6.34959 65.3848 6.77706 66.5455 7.63202C67.7133 8.48697 68.3945 9.65123 68.5891 11.1248Z" fill="#0C0C0C"/>
<path d="M76.3176 22.8752C75.2958 22.8752 74.3852 22.6979 73.5859 22.3435C72.7865 21.982 72.154 21.4503 71.6883 20.7482C71.2295 20.0393 71.0002 19.1565 71.0002 18.1C71.0002 17.2103 71.1635 16.4631 71.4902 15.8583C71.8169 15.2536 72.2617 14.767 72.8248 14.3987C73.3878 14.0303 74.0273 13.7522 74.7432 13.5646C75.4661 13.3769 76.2237 13.2448 77.0161 13.1684C77.9475 13.071 78.6982 12.9807 79.2682 12.8973C79.8382 12.8069 80.2517 12.6748 80.5089 12.5011C80.7661 12.3273 80.8947 12.0701 80.8947 11.7295V11.667C80.8947 11.0066 80.6861 10.4958 80.2691 10.1343C79.859 9.77287 79.2751 9.59215 78.5175 9.59215C77.7181 9.59215 77.0821 9.7694 76.6095 10.1239C76.1368 10.4714 75.824 10.9093 75.6711 11.4376L71.5632 11.104C71.7717 10.1308 72.1818 9.28979 72.7935 8.5808C73.4052 7.86487 74.1941 7.31575 75.1602 6.93346C76.1333 6.54421 77.2594 6.34959 78.5383 6.34959C79.428 6.34959 80.2795 6.45385 81.0928 6.66237C81.913 6.8709 82.6393 7.19411 83.2719 7.63202C83.9113 8.06992 84.4153 8.63294 84.7837 9.32107C85.1521 10.0023 85.3363 10.819 85.3363 11.7712V22.5728H81.124V20.352H80.9989C80.7418 20.8525 80.3977 21.2939 79.9667 21.6762C79.5358 22.0515 79.0179 22.3469 78.4132 22.5624C77.8085 22.7709 77.11 22.8752 76.3176 22.8752ZM77.5896 19.8099C78.2429 19.8099 78.8199 19.6813 79.3203 19.4241C79.8208 19.16 80.2135 18.8055 80.4985 18.3606C80.7835 17.9158 80.9259 17.4118 80.9259 16.8488V15.1493C80.7869 15.2397 80.5958 15.3231 80.3525 15.3996C80.1162 15.4691 79.8486 15.5351 79.5497 15.5977C79.2508 15.6533 78.9519 15.7054 78.653 15.7541C78.3541 15.7958 78.0831 15.834 77.8398 15.8688C77.3185 15.9452 76.8632 16.0669 76.4739 16.2337C76.0847 16.4005 75.7823 16.6264 75.5669 16.9114C75.3514 17.1894 75.2436 17.537 75.2436 17.954C75.2436 18.5587 75.4626 19.021 75.9005 19.3407C76.3454 19.6535 76.9084 19.8099 77.5896 19.8099Z" fill="#0C0C0C"/>
<path d="M93.2237 13.3143V22.5728H88.7821V6.55811H93.0152V9.38363H93.2029C93.5574 8.45222 94.1516 7.71543 94.9857 7.17326C95.8198 6.62415 96.8312 6.34959 98.0198 6.34959C99.1319 6.34959 100.102 6.59287 100.929 7.07942C101.756 7.56598 102.399 8.26107 102.858 9.16467C103.316 10.0613 103.546 11.1318 103.546 12.376V22.5728H99.1041V13.1684C99.1111 12.1883 98.8608 11.4237 98.3534 10.8746C97.846 10.3185 97.1475 10.0405 96.2578 10.0405C95.66 10.0405 95.1317 10.1691 94.673 10.4263C94.2212 10.6834 93.8667 11.0588 93.6095 11.5523C93.3593 12.0388 93.2307 12.6262 93.2237 13.3143Z" fill="#0C0C0C"/>
<path d="M115.565 6.55811V9.89451H105.92V6.55811H115.565ZM108.11 2.72125H112.551V17.6516C112.551 18.0617 112.614 18.3815 112.739 18.6109C112.864 18.8333 113.038 18.9897 113.26 19.08C113.49 19.1704 113.754 19.2156 114.053 19.2156C114.261 19.2156 114.47 19.1982 114.678 19.1634C114.887 19.1217 115.047 19.0905 115.158 19.0696L115.857 22.3747C115.634 22.4442 115.321 22.5242 114.918 22.6145C114.515 22.7118 114.025 22.7709 113.448 22.7918C112.378 22.8335 111.439 22.691 110.633 22.3643C109.834 22.0376 109.212 21.5302 108.767 20.8421C108.322 20.1539 108.103 19.2851 108.11 18.2355V2.72125Z" fill="#0C0C0C"/>
</svg>
