<svg width="30" height="30" viewBox="0 0 30 30" fill="none" xmlns="http://www.w3.org/2000/svg">
<path d="M1 23.6042V14.5625C1 10.9655 2.4289 7.51583 4.97236 4.97236C7.51583 2.4289 10.9655 1 14.5625 1C18.1595 1 21.6092 2.4289 24.1526 4.97236C26.6961 7.51583 28.125 10.9655 28.125 14.5625V23.6042" stroke="black" stroke-width="2" stroke-linecap="round" stroke-linejoin="round"/>
<path d="M28.125 25.1111C28.125 25.9105 27.8075 26.6771 27.2423 27.2423C26.677 27.8075 25.9104 28.125 25.1111 28.125H23.6042C22.8048 28.125 22.0382 27.8075 21.473 27.2423C20.9078 26.6771 20.5903 25.9105 20.5903 25.1111V20.5903C20.5903 19.791 20.9078 19.0244 21.473 18.4592C22.0382 17.894 22.8048 17.5764 23.6042 17.5764H28.125V25.1111ZM1 25.1111C1 25.9105 1.31753 26.6771 1.88275 27.2423C2.44796 27.8075 3.21456 28.125 4.01389 28.125H5.52083C6.32017 28.125 7.08676 27.8075 7.65197 27.2423C8.21719 26.6771 8.53472 25.9105 8.53472 25.1111V20.5903C8.53472 19.791 8.21719 19.0244 7.65197 18.4592C7.08676 17.894 6.32017 17.5764 5.52083 17.5764H1V25.1111Z" stroke="black" stroke-width="2" stroke-linecap="round" stroke-linejoin="round"/>
</svg>
