<svg width="16" height="14" viewBox="0 0 16 14" fill="none" xmlns="http://www.w3.org/2000/svg">
<path d="M13.4435 3.4895H2.38261C1.61901 3.4895 1 4.10852 1 4.87211V11.7851C1 12.5487 1.61901 13.1677 2.38261 13.1677H13.4435C14.207 13.1677 14.8261 12.5487 14.8261 11.7851V4.87211C14.8261 4.10852 14.207 3.4895 13.4435 3.4895Z" stroke="#0C0C0C" stroke-width="1.2" stroke-linecap="round" stroke-linejoin="round"/>
<path d="M10.6781 13.1678V2.10697C10.6781 1.74028 10.5324 1.38861 10.2732 1.12932C10.0139 0.870032 9.6622 0.724365 9.29551 0.724365H6.5303C6.16361 0.724365 5.81194 0.870032 5.55265 1.12932C5.29336 1.38861 5.14769 1.74028 5.14769 2.10697V13.1678" stroke="#395EE3" stroke-width="1.2" stroke-linecap="round" stroke-linejoin="round"/>
</svg>
