<svg width="156" height="32" viewBox="0 0 156 32" fill="none" xmlns="http://www.w3.org/2000/svg">
<path d="M6.82024 30.9417H0.334106L10.2171 2.31325H18.0172L27.8862 30.9417H21.4001L14.229 8.8553H14.0053L6.82024 30.9417Z" fill="#0C0C0C"/>
<path d="M31.2201 30.9417V9.47037H36.9934V13.2167H37.217C37.6084 11.884 38.2654 10.8776 39.188 10.1973C40.1106 9.50764 41.173 9.16283 42.3752 9.16283C42.6734 9.16283 42.9949 9.18147 43.3397 9.21875C43.6845 9.25603 43.9874 9.30728 44.2483 9.37251V14.6565C43.9688 14.5726 43.582 14.4981 43.0881 14.4328C42.5942 14.3676 42.1422 14.335 41.7322 14.335C40.8562 14.335 40.0733 14.526 39.3837 14.9081C38.7034 15.2809 38.1629 15.8027 37.7622 16.4737C37.3708 17.1447 37.1751 17.9182 37.1751 18.7942V30.9417H31.2201Z" fill="#0C0C0C"/>
<path d="M59.8242 9.47037V13.9436H46.8938V9.47037H59.8242ZM49.8293 4.32619H55.7843V24.3438C55.7843 24.8936 55.8682 25.3223 56.0359 25.6298C56.2037 25.928 56.4366 26.1377 56.7349 26.2588C57.0424 26.38 57.3965 26.4406 57.7972 26.4406C58.0768 26.4406 58.3564 26.4173 58.636 26.3707C58.9155 26.3148 59.1299 26.2728 59.279 26.2449L60.2156 30.6761C59.9173 30.7693 59.498 30.8765 58.9575 30.9976C58.417 31.1281 57.76 31.2073 56.9865 31.2353C55.5513 31.2912 54.2932 31.1001 53.2122 30.6621C52.1405 30.2241 51.3064 29.5438 50.71 28.6212C50.1136 27.6987 49.82 26.5338 49.8293 25.1266V4.32619Z" fill="#0C0C0C"/>
<path d="M63.7033 30.9417V9.47037H69.6582V30.9417H63.7033ZM66.6947 6.70257C65.8094 6.70257 65.0499 6.40902 64.4162 5.82191C63.7918 5.22549 63.4796 4.51257 63.4796 3.68317C63.4796 2.86308 63.7918 2.15948 64.4162 1.57238C65.0499 0.975948 65.8094 0.677734 66.6947 0.677734C67.58 0.677734 68.3349 0.975948 68.9593 1.57238C69.593 2.15948 69.9098 2.86308 69.9098 3.68317C69.9098 4.51257 69.593 5.22549 68.9593 5.82191C68.3349 6.40902 67.58 6.70257 66.6947 6.70257Z" fill="#0C0C0C"/>
<path d="M92.2933 15.5931L86.8416 15.9285C86.7484 15.4626 86.548 15.0432 86.2405 14.6705C85.933 14.2884 85.5276 13.9855 85.0243 13.7618C84.5304 13.5289 83.9387 13.4124 83.249 13.4124C82.3264 13.4124 81.5483 13.6081 80.9146 13.9995C80.2809 14.3816 79.964 14.8941 79.964 15.5371C79.964 16.0497 80.1691 16.483 80.5791 16.8372C80.9891 17.1913 81.6927 17.4755 82.6899 17.6899L86.576 18.4727C88.6635 18.9014 90.2198 19.591 91.2449 20.5415C92.27 21.4921 92.7826 22.7409 92.7826 24.2878C92.7826 25.695 92.3678 26.9298 91.5384 27.9922C90.7183 29.0546 89.5907 29.884 88.1556 30.4804C86.7297 31.0675 85.0849 31.3611 83.2211 31.3611C80.3787 31.3611 78.1142 30.7693 76.4274 29.5858C74.75 28.3929 73.7668 26.7714 73.4779 24.7212L79.335 24.4136C79.5121 25.2803 79.9407 25.942 80.621 26.3986C81.3013 26.8459 82.1727 27.0696 83.2351 27.0696C84.2788 27.0696 85.1175 26.8692 85.7512 26.4685C86.3943 26.0585 86.7204 25.5319 86.7297 24.8889C86.7204 24.3484 86.4921 23.9058 86.0448 23.5609C85.5975 23.2068 84.9078 22.9366 83.9759 22.7502L80.2576 22.0093C78.1608 21.5899 76.5998 20.863 75.5747 19.8286C74.5589 18.7942 74.051 17.4755 74.051 15.8726C74.051 14.4934 74.4238 13.3052 75.1693 12.3081C75.9242 11.3109 76.9819 10.5421 78.3425 10.0016C79.7124 9.46105 81.3153 9.19079 83.1512 9.19079C85.8631 9.19079 87.9971 9.76392 89.5534 10.9102C91.1191 12.0564 92.0324 13.6174 92.2933 15.5931Z" fill="#0C0C0C"/>
<path d="M102.655 31.3471C101.285 31.3471 100.064 31.1095 98.9926 30.6342C97.9209 30.1496 97.0729 29.4367 96.4485 28.4954C95.8334 27.5449 95.5259 26.3614 95.5259 24.9448C95.5259 23.752 95.7449 22.7502 96.1829 21.9394C96.6209 21.1286 97.2173 20.4763 97.9722 19.9824C98.727 19.4885 99.5844 19.1157 100.544 18.8641C101.513 18.6125 102.529 18.4354 103.592 18.3329C104.84 18.2024 105.847 18.0813 106.611 17.9694C107.375 17.8483 107.93 17.6712 108.274 17.4383C108.619 17.2053 108.792 16.8605 108.792 16.4038V16.32C108.792 15.4346 108.512 14.7497 107.953 14.2651C107.403 13.7805 106.62 13.5382 105.605 13.5382C104.533 13.5382 103.68 13.7758 103.046 14.2511C102.413 14.7171 101.993 15.3042 101.788 16.0124L96.2807 15.5651C96.5603 14.2604 97.1101 13.1328 97.9302 12.1822C98.7503 11.2224 99.808 10.4862 101.103 9.9736C102.408 9.45173 103.918 9.19079 105.632 9.19079C106.825 9.19079 107.967 9.33058 109.057 9.61015C110.157 9.88973 111.131 10.3231 111.979 10.9102C112.836 11.4973 113.512 12.2521 114.006 13.1747C114.5 14.088 114.747 15.183 114.747 16.4597V30.9417H109.099V27.9642H108.931C108.587 28.6352 108.125 29.227 107.548 29.7395C106.97 30.2428 106.276 30.6388 105.465 30.9277C104.654 31.2073 103.717 31.3471 102.655 31.3471ZM104.36 27.2374C105.236 27.2374 106.01 27.0649 106.681 26.7201C107.352 26.366 107.878 25.8907 108.261 25.2943C108.643 24.6979 108.834 24.0222 108.834 23.2674V20.9889C108.647 21.11 108.391 21.2218 108.065 21.3243C107.748 21.4175 107.389 21.5061 106.988 21.5899C106.588 21.6645 106.187 21.7344 105.786 21.7996C105.386 21.8555 105.022 21.9068 104.696 21.9534C103.997 22.0559 103.387 22.219 102.865 22.4426C102.343 22.6663 101.937 22.9692 101.649 23.3513C101.36 23.724 101.215 24.19 101.215 24.7491C101.215 25.5599 101.509 26.1796 102.096 26.6083C102.692 27.0277 103.447 27.2374 104.36 27.2374Z" fill="#0C0C0C"/>
<path d="M125.322 18.5286V30.9417H119.367V9.47037H125.042V13.2586H125.294C125.769 12.0098 126.566 11.022 127.684 10.2951C128.802 9.5589 130.158 9.19079 131.752 9.19079C133.243 9.19079 134.543 9.51696 135.652 10.1693C136.761 10.8216 137.623 11.7536 138.238 12.9651C138.853 14.1672 139.161 15.6024 139.161 17.2705V30.9417H133.206V18.3329C133.215 17.0189 132.879 15.9938 132.199 15.2576C131.519 14.512 130.582 14.1393 129.389 14.1393C128.588 14.1393 127.88 14.3117 127.265 14.6565C126.659 15.0013 126.184 15.5045 125.839 16.1662C125.503 16.8185 125.331 17.606 125.322 18.5286Z" fill="#0C0C0C"/>
<path d="M155.275 9.47037V13.9436H142.344V9.47037H155.275ZM145.28 4.32619H151.235V24.3438C151.235 24.8936 151.319 25.3223 151.486 25.6298C151.654 25.928 151.887 26.1377 152.185 26.2588C152.493 26.38 152.847 26.4406 153.248 26.4406C153.527 26.4406 153.807 26.4173 154.086 26.3707C154.366 26.3148 154.58 26.2728 154.729 26.2449L155.666 30.6761C155.368 30.7693 154.948 30.8765 154.408 30.9976C153.867 31.1281 153.21 31.2073 152.437 31.2353C151.002 31.2912 149.744 31.1001 148.663 30.6621C147.591 30.2241 146.757 29.5438 146.16 28.6212C145.564 27.6987 145.27 26.5338 145.28 25.1266V4.32619Z" fill="#0C0C0C"/>
</svg>
