<svg width="23" height="20" viewBox="0 0 23 20" fill="none" xmlns="http://www.w3.org/2000/svg">
<path d="M20.8288 7.14302C18.8288 5.44302 15.5288 3.34302 11.0288 3.34302C10.5288 3.34302 10.0288 3.34302 9.72881 3.44302C9.12881 3.54302 8.72879 4.04302 8.82879 4.64302C8.92879 5.14302 9.42881 5.54302 9.92881 5.54302C10.2288 5.54302 10.6288 5.44302 11.0288 5.44302C14.9288 5.44302 17.8288 7.24302 19.5288 8.74302C19.8288 8.94302 20.0288 9.34302 20.0288 9.84302C20.0288 10.343 19.8288 10.643 19.5288 10.943C18.9288 11.443 18.2288 11.943 17.5288 12.343C17.0288 12.643 16.9288 13.243 17.1288 13.743C17.3288 14.043 17.6288 14.243 18.0288 14.243C18.2288 14.243 18.3288 14.243 18.5288 14.143C19.3288 13.643 20.1288 13.143 20.8288 12.543C21.6288 11.843 22.0288 10.943 22.0288 9.94302C22.0288 8.74302 21.6288 7.84302 20.8288 7.14302Z" fill="#9B9A9A"/>
<path d="M3.22881 0.643018C2.82881 0.243018 2.22881 0.243018 1.82881 0.643018C1.42881 1.04302 1.42881 1.64302 1.82881 2.04302L4.62881 4.84302C3.22881 5.64302 2.02881 6.54302 1.22881 7.14302C0.428809 7.84302 0.0288086 8.74302 0.0288086 9.84302C0.0288086 10.943 0.428809 11.843 1.22881 12.443C3.22881 14.143 6.52881 16.243 11.0288 16.243C12.5288 16.243 13.9288 16.043 15.3288 15.543L18.8288 19.043C19.0288 19.243 19.3288 19.343 19.5288 19.343C19.7288 19.343 20.0288 19.243 20.2288 19.043C20.6288 18.643 20.6288 18.043 20.2288 17.643L3.22881 0.643018ZM11.0288 14.143C7.12881 14.143 4.22881 12.343 2.52881 10.843C2.22881 10.643 2.02881 10.243 2.02881 9.84302C2.02881 9.44302 2.22881 9.04302 2.52881 8.74302C3.32881 8.04302 4.62881 7.14302 6.22881 6.44302L8.82881 9.04302C8.72881 9.24302 8.72881 9.54302 8.72881 9.84302C8.72881 11.143 9.72881 12.143 11.0288 12.143C11.3288 12.143 11.5288 12.043 11.8288 12.043L13.7288 13.943C12.8288 14.043 11.9288 14.143 11.0288 14.143Z" fill="#9B9A9A"/>
</svg>
